<svg xmlns="http://www.w3.org/2000/svg" xmlns:xlink="http://www.w3.org/1999/xlink"><defs><linearGradient id="paint0_linear_336_182" x1="48.847" y1="12.964" x2="63.776" y2="28.33" gradientUnits="userSpaceOnUse"><stop stop-color="#E94381"/><stop offset=".3" stop-color="#8978B6"/><stop offset=".52" stop-color="#2DAEE5"/><stop offset=".75" stop-color="#45BDD4"/><stop offset="1" stop-color="#79C3A8"/></linearGradient></defs><symbol id="icon-logo"><path d="M110 2.209H30.43v1.76H110v-1.76z" fill="#41454C"/><path d="M65.048 0H47.971v6.708h6.059V9.62l2.48 3.331 2.48-3.33V6.707h6.058V0z" fill="#41454C"/><path d="M43.357 15.14H35.81v3.33h7.395v5.053H35.81v7.007h-5.377V10.085H43.36l-.003 5.055zm37.515 15.39l-3.667-6.601H75.28v6.6H69.9V10.086h8.416c2.145 0 3.944.667 5.396 2 1.452 1.334 2.178 3.023 2.18 5.068a6.221 6.221 0 01-.963 3.374 6.973 6.973 0 01-2.612 2.438l4.326 7.565h-5.771zM75.28 14.905v4.585h2.976c.3.02.601-.025.882-.131.28-.106.534-.27.742-.482a2.276 2.276 0 00.631-1.665 2.255 2.255 0 00-.145-.894 2.306 2.306 0 00-.486-.772 2.155 2.155 0 00-.742-.488c-.28-.11-.58-.163-.882-.153H75.28zm34.72-4.82V30.53h-5.352V19.52l-5.11 8.206h-.55l-5.08-8.177v10.98h-5.37V10.086h5.38l5.35 8.728 5.38-8.728H110z" fill="#289ED9"/><path d="M64.29 12.985h-7.78v.798h-8.508a10.432 10.432 0 00-2.339 5.552 10.335 10.335 0 001.14 5.896 10.73 10.73 0 004.254 4.348 11.158 11.158 0 006.002 1.407A11.109 11.109 0 0062.886 29a10.64 10.64 0 003.781-4.742 10.31 10.31 0 00.524-5.978c-.422-2-1.43-3.839-2.902-5.295z" fill="#2DAEE5"/><path d="M22.86 16.268c1.201 1.407 1.801 3.102 1.8 5.085a8.474 8.474 0 01-1.428 4.722c-.95 1.462-2.418 2.65-4.4 3.562-1.982.914-4.453 1.365-7.412 1.356-2.052 0-4.098-.213-6.103-.636A19.28 19.28 0 010 28.467l3.311-6.995a15.43 15.43 0 003.826 1.529c1.29.338 2.618.514 3.953.522 1.13 0 2.04-.188 2.73-.563.69-.376 1.035-.91 1.034-1.603-.003-1.295-1.147-1.942-3.434-1.942H7.57v-5.82l4.262-4.222H1.49V2.218h21.598v5.828l-5.377 5.313c2.233.533 3.95 1.503 5.15 2.909z" fill="#41454C"/></symbol><symbol id="icon-paint"><path d="M6.667 10.667v16H12v-16H6.667zM4 9.333l5.333-6.666 5.334 6.666v20H4v-20zm21.333 12v-2.666h-4V16h4v-2.667h-2.666v-2.666h2.666V8H20v18.667h5.333V24h-2.666v-2.667h2.666zm-6.666-16h8A1.333 1.333 0 0128 6.667V28a1.333 1.333 0 01-1.333 1.333h-8A1.333 1.333 0 0117.333 28V6.667a1.333 1.333 0 011.334-1.334z" fill="#1E88E5"/></symbol><symbol id="icon-printer"><path d="M6 23.333H2A1.333 1.333 0 01.667 22V8.667A1.333 1.333 0 012 7.333h4V2A1.333 1.333 0 017.334.667h13.333A1.333 1.333 0 0122 2v5.333h4a1.333 1.333 0 011.334 1.334V22A1.333 1.333 0 0126 23.333h-4V26a1.333 1.333 0 01-1.333 1.333H7.334A1.333 1.333 0 016 26v-2.667zm0-2.666v-1.334A1.333 1.333 0 017.334 18h13.333A1.333 1.333 0 0122 19.333v1.334h2.667V10H3.334v10.667H6zM8.667 3.333v4h10.667v-4H8.667zm0 17.334v4h10.667v-4H8.667zm-4-9.334h4V14h-4v-2.667z" fill="#2F80ED"/></symbol><symbol id="icon-stack"><path d="M23.777 19.267l1.603.961a.667.667 0 010 1.144l-11.693 7.016a1.333 1.333 0 01-1.373 0L.62 21.372a.667.667 0 010-1.144l1.603-.961L13 25.733l10.777-6.466zm0-6.267l1.603.961a.667.667 0 010 1.144L13 22.533.62 15.105a.666.666 0 010-1.144L2.223 13 13 19.467 23.777 13zM13.685.745L25.38 7.761a.667.667 0 010 1.144L13 16.333.62 8.905a.667.667 0 010-1.144L12.314.745a1.333 1.333 0 011.373 0h-.002zM13 3.443l-8.15 4.89L13 13.224l8.15-4.89L13 3.442z" fill="#2F80ED"/></symbol></svg>