<svg width="110" height="31" viewBox="0 0 110 31" fill="none" xmlns="http://www.w3.org/2000/svg">
    <path d="M110 2.20868H30.4297V3.9685H110V2.20868Z" fill="#41454C"/>
    <path d="M65.0482 0H47.9707V6.708H54.0299V9.62026L56.5104 12.9511L58.9909 9.62026V6.708H65.0482V0Z" fill="#41454C"/>
    <path d="M43.3567 15.1402H35.8108V18.4693H43.2064V23.5225H35.8108V30.5298H30.4336V10.0852H43.3604L43.3567 15.1402Z" fill="#289ED9"/>
    <path d="M80.8719 30.5298L77.2052 23.9287H75.2802V30.5298H69.8994V10.0852H78.3162C80.4612 10.0852 82.2597 10.7519 83.7117 12.0855C85.1637 13.419 85.8903 15.1082 85.8916 17.153C85.9021 18.3429 85.5686 19.5118 84.9291 20.5266C84.2914 21.5464 83.3909 22.3869 82.3166 22.965L86.6432 30.5298H80.8719ZM75.2802 14.9051V19.4899H78.2557C78.5561 19.5095 78.8573 19.4648 79.138 19.3589C79.4186 19.253 79.672 19.0886 79.8801 18.8772C80.0927 18.6535 80.2579 18.3913 80.3661 18.1055C80.4743 17.8197 80.5235 17.516 80.5107 17.2117C80.5235 16.9075 80.4743 16.6038 80.3661 16.318C80.2579 16.0322 80.0927 15.77 79.8801 15.5463C79.6709 15.3346 79.4181 15.1681 79.1382 15.0576C78.8583 14.9471 78.5577 14.8951 78.2557 14.9051H75.2802Z"
          fill="#289ED9"/>
    <path d="M110 10.0852V30.5298H104.648V19.5202L99.5389 27.7262H98.9889L93.9088 19.5487V30.5298H88.5371V10.0852H93.9179L99.2676 18.813L104.648 10.0852H110Z" fill="#289ED9"/>
    <path d="M64.2894 12.9849H56.5106V13.7829H48.0021C46.6882 15.376 45.876 17.304 45.6634 19.3349C45.4508 21.3659 45.8467 23.4133 46.8036 25.2308C47.7605 27.0482 49.2375 28.5583 51.057 29.5794C52.8764 30.6005 54.9608 31.089 57.0594 30.9862C59.1579 30.8834 61.1811 30.1936 62.8857 28.9999C64.5902 27.8062 65.9034 26.1593 66.6672 24.2576C67.431 22.3558 67.613 20.2801 67.1911 18.2802C66.7693 16.2803 65.7616 14.4415 64.2894 12.9849Z"
          fill="#2DAEE5"/>
<!--          fill="url(#paint0_linear_336_182)"/>-->
    <path d="M22.8598 16.2677C24.0613 17.6749 24.6614 19.37 24.6602 21.3531C24.6647 23.0282 24.1685 24.6686 23.232 26.075C22.2811 27.5368 20.8144 28.7243 18.832 29.6374C16.8496 30.5506 14.3788 31.0024 11.4198 30.9929C9.3679 30.9936 7.32181 30.7804 5.31667 30.357C3.45694 29.9896 1.66467 29.3526 0 28.4672L3.311 21.4724C4.50861 22.1491 5.79596 22.6633 7.13717 23.0007C8.4261 23.3393 9.75465 23.5147 11.0898 23.5226C12.2192 23.5226 13.1291 23.3349 13.8197 22.9597C14.5102 22.5845 14.8549 22.0501 14.8537 21.3566C14.8512 20.0623 13.7066 19.4151 11.4198 19.4151H7.56983V13.5942L11.8323 9.37272H1.48867V2.21764H23.0872V8.04572L17.71 13.359C19.943 13.8922 21.6596 14.8618 22.8598 16.2677Z"
          fill="#41454C"/>
    <defs>
        <linearGradient id="paint0_linear_336_182" x1="48.8472" y1="12.9636" x2="63.7764" y2="28.3297" gradientUnits="userSpaceOnUse">
            <stop stop-color="#E94381"/>
            <stop offset="0.3" stop-color="#8978B6"/>
            <stop offset="0.52" stop-color="#2DAEE5"/>
            <stop offset="0.75" stop-color="#45BDD4"/>
            <stop offset="1" stop-color="#79C3A8"/>
        </linearGradient>
    </defs>
</svg>
